<svg xmlns="http://www.w3.org/2000/svg" version="1.1"><polyline points="296.5,84.5,278.5,92.5,270.0,100.0,259.5,108.0,254.5,115.5,250.5,123.0,248.0,131.0,246.5,139.0,245.5,147.0,246.0,155.0,247.5,163.0,243.0,172.0,244.5,179.5,243.5,188.5,245.5,196.5,248.0,204.5" stroke="black" stroke-width="2" fill="none" />
<polyline points="257.5,210.5,250.0,211.5,242.0,213.0,234.5,214.0" stroke="black" stroke-width="2" fill="none" />
<polyline points="236.0,221.5,244.0,221.0,252.0,220.0,260.0,219.0,268.0,219.0,275.5,218.5,283.5,218.0,291.5,217.0,299.0,217.0,306.5,216.5,314.0,216.0,322.0,215.5,330.0,214.5,338.0,214.0,346.5,214.0,355.0,214.0,362.5,213.5,370.0,214.0" stroke="black" stroke-width="2" fill="none" />
<polyline points="364.0,226.0,356.5,233.5,348.5,241.0,340.5,249.0,333.0,257.0,325.5,264.0,317.5,272.0" stroke="black" stroke-width="2" fill="none" />
<polyline points="308.0,273.0,316.5,265.5,324.5,258.0,332.5,250.5,340.5,243.0,348.5,235.5" stroke="black" stroke-width="2" fill="none" />
<polyline points="348.0,233.5,338.5,241.5,337.5,242.0,345.5,235.0" stroke="black" stroke-width="2" fill="none" />
<polyline points="354.0,242.5,346.0,250.0,338.0,257.5,330.5,265.5,323.0,274.0,315.0,281.5,307.0,288.5,298.5,296.0,290.5,303.5,282.5,310.5" stroke="black" stroke-width="2" fill="none" />
<polyline points="291.0,311.0,299.5,304.0,307.5,296.5,316.0,289.0,324.0,282.0,332.0,274.5,340.0,267.0,348.5,259.5,356.5,252.5" stroke="black" stroke-width="2" fill="none" />
<polyline points="353.5,247.0,361.5,232.5" stroke="black" stroke-width="2" fill="none" />
<polyline points="348.0,214.0,340.0,221.0" stroke="black" stroke-width="2" fill="none" />
<polyline points="330.5,220.5,338.5,213.0,346.5,206.0" stroke="black" stroke-width="2" fill="none" />
<polyline points="337.5,202.0,330.0,209.5" stroke="black" stroke-width="2" fill="none" />
<polyline points="331.5,195.0,339.5,188.0" stroke="black" stroke-width="2" fill="none" />
<polyline points="331.5,189.0,323.0,196.5" stroke="black" stroke-width="2" fill="none" />
<polyline points="316.0,195.5,324.0,188.0" stroke="black" stroke-width="2" fill="none" />
<polyline points="336.0,184.0,328.0,184.5,319.0,182.0,311.5,181.0" stroke="black" stroke-width="2" fill="none" />
<polyline points="315.5,173.0,307.0,173.0" stroke="black" stroke-width="2" fill="none" />
<polyline points="298.0,181.0,306.0,180.5,314.5,179.5,322.5,179.0,330.0,178.5,338.5,178.0,347.0,177.5,355.5,177.5" stroke="black" stroke-width="2" fill="none" />
<polyline points="363.5,181.5,371.5,181.5,379.5,180.5" stroke="black" stroke-width="2" fill="none" />
<polyline points="355.5,163.0,363.5,155.5,371.0,148.5" stroke="black" stroke-width="2" fill="none" />
<polyline points="370.0,140.5,362.0,148.0,354.0,156.0,346.0,163.5" stroke="black" stroke-width="2" fill="none" />
<polyline points="340.0,159.0,348.0,163.0,356.0,163.0" stroke="black" stroke-width="2" fill="none" />
<polyline points="347.0,156.0,338.5,163.5" stroke="black" stroke-width="2" fill="none" />
<polyline points="338.5,157.5,346.0,154.0,354.0,158.0" stroke="black" stroke-width="2" fill="none" />
<polyline points="355.0,147.0,362.5,139.0,371.0,130.5" stroke="black" stroke-width="2" fill="none" />
<polyline points="371.0,125.5,362.5,126.0,354.5,126.5" stroke="black" stroke-width="2" fill="none" />
<polyline points="354.0,117.0,362.5,116.5,371.0,116.5" stroke="black" stroke-width="2" fill="none" />
<polyline points="364.5,109.5,356.5,110.0,349.0,110.5" stroke="black" stroke-width="2" fill="none" />
<polyline points="346.5,106.0,354.0,98.5" stroke="black" stroke-width="2" fill="none" />
<polyline points="348.5,104.5,357.5,112.5,362.5,120.5,364.0,128.5,363.0,137.0,366.0,145.0,369.0,153.0" stroke="black" stroke-width="2" fill="none" />
<polyline points="354.5,139.0,346.5,146.0,339.0,153.0" stroke="black" stroke-width="2" fill="none" />
<polyline points="342.5,155.0,347.0,163.0" stroke="black" stroke-width="2" fill="none" />
<polyline points="331.5,167.0,339.5,166.0,347.5,165.0,356.0,164.0,364.0,164.0,372.0,163.0" stroke="black" stroke-width="2" fill="none" />
<polyline points="348.0,146.0,339.5,147.0" stroke="black" stroke-width="2" fill="none" />
<polyline points="332.0,145.5,340.5,138.0" stroke="black" stroke-width="2" fill="none" />
<polyline points="336.5,135.5,329.5,143.5,329.5,151.5,329.5,159.5,331.5,167.5" stroke="black" stroke-width="2" fill="none" />
<polyline points="330.5,173.0,338.5,173.0,346.0,172.5,354.0,172.0,362.5,171.5,370.5,170.5,378.5,169.5" stroke="black" stroke-width="2" fill="none" />
<polyline points="373.5,131.0,365.0,132.0,356.5,133.0,348.5,133.5,341.0,134.0,333.5,134.0" stroke="black" stroke-width="2" fill="none" />
<polyline points="333.0,139.0,341.0,143.5,348.5,145.0,356.5,147.5" stroke="black" stroke-width="2" fill="none" />
<polyline points="360.5,143.5,353.0,137.5,345.0,135.5,337.0,133.5,329.0,140.5" stroke="black" stroke-width="2" fill="none" />
<polyline points="330.0,153.0,338.0,145.5,346.0,137.5" stroke="black" stroke-width="2" fill="none" />
<polyline points="353.0,139.5,362.0,147.5,365.5,155.5" stroke="black" stroke-width="2" fill="none" />
<polyline points="314.5,147.5,306.5,155.0,298.5,162.5" stroke="black" stroke-width="2" fill="none" />
<polyline points="291.5,164.0,299.0,163.5,307.0,164.0,315.5,163.5" stroke="black" stroke-width="2" fill="none" />
<polyline points="315.0,141.5,307.0,149.0,299.0,156.0,291.0,163.0" stroke="black" stroke-width="2" fill="none" />
<polyline points="281.5,155.5,289.5,152.5,297.5,151.0" stroke="black" stroke-width="2" fill="none" />
<polyline points="301.5,147.0,309.5,139.0" stroke="black" stroke-width="2" fill="none" />
<polyline points="298.0,139.5,290.0,147.0" stroke="black" stroke-width="2" fill="none" />
<polyline points="280.0,145.5,288.0,142.5,296.5,143.0,304.0,144.0,311.5,143.0" stroke="black" stroke-width="2" fill="none" />
<polyline points="317.5,130.5,309.5,131.0,301.0,131.5,292.5,132.0" stroke="black" stroke-width="2" fill="none" />
<polyline points="289.0,135.5,277.5,143.5,273.0,151.5,268.5,160.0,275.5,147.0,283.5,139.0,290.5,136.0,298.0,135.5,306.0,135.5,313.5,139.0" stroke="black" stroke-width="2" fill="none" />
<polyline points="281.5,140.5,289.0,139.5,297.0,139.5,305.5,139.0,314.5,138.0,323.0,137.5,331.0,137.0,339.5,136.5,348.0,135.5,356.0,135.0,364.0,134.0,372.0,133.5,379.5,133.0" stroke="black" stroke-width="2" fill="none" />
<polyline points="338.5,98.5,346.5,90.5" stroke="black" stroke-width="2" fill="none" />
<polyline points="340.0,91.0,332.0,98.5" stroke="black" stroke-width="2" fill="none" />
<polyline points="332.0,91.0,324.5,98.5" stroke="black" stroke-width="2" fill="none" />
<polyline points="315.5,97.5,323.5,90.0,332.0,82.5" stroke="black" stroke-width="2" fill="none" />
<polyline points="335.5,85.5,349.0,93.5,356.0,101.5,361.0,110.0,366.0,118.0,368.0,125.5,371.0,133.5,372.0,141.5,371.0,149.5,371.0,157.5,372.0,165.0,372.0,173.0,372.0,181.0,370.5,188.5,370.5,197.0,371.5,205.0,371.0,213.0,368.0,221.0,364.0,229.0,358.5,237.0,354.5,245.5,353.5,253.0,353.5,260.5" stroke="black" stroke-width="2" fill="none" />
<polyline points="356.0,259.0,347.5,266.5,339.5,274.0,331.0,282.0,323.0,290.0,315.0,297.5,307.0,305.5,299.5,313.0" stroke="black" stroke-width="2" fill="none" />
<polyline points="301.0,314.0,309.0,314.0,316.5,313.0,324.0,312.0,331.5,312.0,339.0,311.0,347.0,311.0,355.0,310.0,363.0,310.0,371.0,310.0,379.0,309.5,387.0,309.0,395.5,308.5,404.0,308.0,412.5,307.5,420.5,306.5,428.0,305.5,435.0,304.5,443.0,304.0,451.0,303.0,459.0,303.0,467.0,302.5,475.0,302.5,482.5,302.5,491.0,302.0,499.5,302.0,507.5,301.5,515.5,301.5" stroke="black" stroke-width="2" fill="none" />
<polyline points="516.0,297.0,508.5,305.0,500.5,313.0,492.5,320.5,485.0,328.5,476.5,336.0,468.5,344.0" stroke="black" stroke-width="2" fill="none" />
<polyline points="467.0,346.0,474.5,345.0,482.5,344.5,491.0,343.5,498.5,343.0,507.0,343.0,515.5,341.5" stroke="black" stroke-width="2" fill="none" />
<polyline points="514.5,339.0,506.5,346.5,498.5,354.5" stroke="black" stroke-width="2" fill="none" />
<polyline points="491.5,354.5,499.5,353.5,507.5,352.5,515.0,351.5" stroke="black" stroke-width="2" fill="none" />
<polyline points="515.0,347.0,507.0,354.0,499.5,361.5" stroke="black" stroke-width="2" fill="none" />
<polyline points="506.5,363.5,514.5,356.0" stroke="black" stroke-width="2" fill="none" />
<polyline points="515.5,363.0,508.0,370.5" stroke="black" stroke-width="2" fill="none" />
<polyline points="507.5,360.0,515.5,359.5" stroke="black" stroke-width="2" fill="none" />
<polyline points="491.0,355.0,499.0,346.5,507.0,339.0,515.0,331.5" stroke="black" stroke-width="2" fill="none" />
<polyline points="514.5,322.5,506.5,330.5,499.0,338.5,491.5,346.5,484.0,354.0,476.0,361.5,468.0,369.0,460.0,376.5,452.0,383.5" stroke="black" stroke-width="2" fill="none" />
<polyline points="444.5,381.0,452.5,374.0,460.5,367.0,468.0,360.0,475.5,352.5,483.0,345.5,490.5,338.0,498.5,330.5,506.0,322.5,514.5,315.0" stroke="black" stroke-width="2" fill="none" />
<polyline points="516.5,307.0,508.5,315.0,501.0,322.5,492.5,330.0,484.5,337.5,476.5,345.0,468.5,352.5" stroke="black" stroke-width="2" fill="none" />
<polyline points="478.5,347.0,496.5,355.0,508.0,363.0" stroke="black" stroke-width="2" fill="none" />
<polyline points="490.5,363.0,482.5,370.5,474.5,378.0,466.5,385.5" stroke="black" stroke-width="2" fill="none" />
<polyline points="484.0,387.5,491.5,380.0" stroke="black" stroke-width="2" fill="none" />
<polyline points="492.5,373.0,484.5,380.5,476.0,387.5" stroke="black" stroke-width="2" fill="none" />
<polyline points="458.5,386.5,466.5,379.0,474.0,371.5,482.0,364.5" stroke="black" stroke-width="2" fill="none" />
<polyline points="451.0,371.0,443.0,379.0,435.0,386.5" stroke="black" stroke-width="2" fill="none" />
<polyline points="427.0,386.5,435.0,379.0,443.0,372.0" stroke="black" stroke-width="2" fill="none" />
<polyline points="440.5,362.5,432.5,370.0,424.5,377.5,417.0,385.0" stroke="black" stroke-width="2" fill="none" />
<polyline points="411.0,386.5,419.0,379.0,427.0,371.5,435.0,363.5" stroke="black" stroke-width="2" fill="none" />
<polyline points="429.0,362.0,420.5,369.0,412.5,376.0,404.5,384.0" stroke="black" stroke-width="2" fill="none" />
<polyline points="395.0,386.5,402.5,379.5,410.5,372.0" stroke="black" stroke-width="2" fill="none" />
<polyline points="404.0,373.5,396.0,381.0,387.5,388.0" stroke="black" stroke-width="2" fill="none" />
<polyline points="378.5,386.5,386.5,379.0,395.0,372.0" stroke="black" stroke-width="2" fill="none" />
<polyline points="386.5,371.0,394.0,363.0" stroke="black" stroke-width="2" fill="none" />
<polyline points="388.0,357.0,380.0,364.0" stroke="black" stroke-width="2" fill="none" />
<polyline points="374.0,369.5,366.0,377.5,357.5,385.5" stroke="black" stroke-width="2" fill="none" />
<polyline points="363.5,387.5,372.0,380.0,379.5,373.0" stroke="black" stroke-width="2" fill="none" />
<polyline points="381.0,380.5,372.5,388.0" stroke="black" stroke-width="2" fill="none" />
<polyline points="360.5,372.5,352.5,380.0,345.0,388.0" stroke="black" stroke-width="2" fill="none" />
<polyline points="340.5,386.0,349.0,378.5,357.0,371.0" stroke="black" stroke-width="2" fill="none" />
<polyline points="349.0,371.0,341.0,379.0,332.5,386.5" stroke="black" stroke-width="2" fill="none" />
<polyline points="322.5,386.0,330.0,378.0,338.0,370.0" stroke="black" stroke-width="2" fill="none" />
<polyline points="340.5,361.5,332.5,369.0,324.0,377.0,316.0,385.0" stroke="black" stroke-width="2" fill="none" />
<polyline points="306.5,385.5,314.5,377.5,322.5,370.5,330.5,363.0" stroke="black" stroke-width="2" fill="none" />
<polyline points="324.0,362.5,316.0,370.0,308.5,378.0,300.5,386.0" stroke="black" stroke-width="2" fill="none" />
<polyline points="292.0,386.0,300.0,378.5,308.5,371.0,316.5,363.5" stroke="black" stroke-width="2" fill="none" />
<polyline points="307.0,366.0,299.0,373.5,291.0,380.5,283.0,387.5" stroke="black" stroke-width="2" fill="none" />
<polyline points="276.0,385.5,284.5,378.0,292.0,371.0,299.5,364.0" stroke="black" stroke-width="2" fill="none" />
<polyline points="291.5,364.5,283.5,371.5,275.0,379.0,267.0,386.0" stroke="black" stroke-width="2" fill="none" />
<polyline points="259.5,386.5,267.5,379.5,276.0,372.0,284.5,364.5" stroke="black" stroke-width="2" fill="none" />
<polyline points="275.5,364.0,267.5,371.5,260.0,378.5,252.0,385.5" stroke="black" stroke-width="2" fill="none" />
<polyline points="245.0,386.5,252.5,379.0,260.0,371.5,268.0,363.5" stroke="black" stroke-width="2" fill="none" />
<polyline points="260.0,364.5,252.0,372.0,244.0,379.5,236.0,387.0" stroke="black" stroke-width="2" fill="none" />
<polyline points="226.5,385.0,234.5,377.5,242.0,369.5,250.0,362.0" stroke="black" stroke-width="2" fill="none" />
<polyline points="243.5,363.0,235.5,370.5,227.5,377.0,219.5,384.0" stroke="black" stroke-width="2" fill="none" />
<polyline points="209.0,387.5,216.5,380.0,225.0,372.5,232.5,364.5" stroke="black" stroke-width="2" fill="none" />
<polyline points="229.0,365.0,220.5,372.5,212.0,380.0,204.0,388.0" stroke="black" stroke-width="2" fill="none" />
<polyline points="196.5,384.5,204.0,377.0,211.5,369.5,219.5,362.0" stroke="black" stroke-width="2" fill="none" />
<polyline points="211.5,356.0,203.0,363.5,194.5,371.0,186.0,378.0,178.0,386.0" stroke="black" stroke-width="2" fill="none" />
<polyline points="186.5,385.5,194.0,378.0,201.5,370.5,209.5,363.5" stroke="black" stroke-width="2" fill="none" />
<polyline points="203.5,349.5,195.5,357.0,187.5,364.0,179.5,370.5,171.0,377.5,162.5,384.5" stroke="black" stroke-width="2" fill="none" />
<polyline points="171.0,384.5,179.0,377.5,187.0,370.5,195.5,363.0,203.5,355.5,211.0,348.0" stroke="black" stroke-width="2" fill="none" />
<polyline points="197.0,349.5,188.5,357.0,180.0,363.5,171.0,371.0,162.5,378.0,155.0,386.0" stroke="black" stroke-width="2" fill="none" />
<polyline points="147.5,385.0,155.0,377.0,163.0,369.5,171.0,362.0,179.0,354.5,187.0,347.5,195.0,340.0" stroke="black" stroke-width="2" fill="none" />
<polyline points="187.0,337.5,179.0,345.5,171.5,353.5,163.5,361.5,156.0,369.5,148.0,377.5,140.5,385.5" stroke="black" stroke-width="2" fill="none" />
<polyline points="131.5,385.5,139.5,378.0,147.0,370.0,154.5,362.5,163.0,354.5,171.0,346.5,179.0,339.0" stroke="black" stroke-width="2" fill="none" />
<polyline points="171.0,339.0,163.0,347.0,155.0,354.0,147.0,361.5,138.5,369.0,130.0,377.0,122.5,385.0" stroke="black" stroke-width="2" fill="none" />
<polyline points="123.0,384.0,131.5,384.0,139.0,383.5,147.0,383.0,155.0,382.5,163.0,382.5,170.5,381.5,178.5,380.5,187.0,380.0,195.0,380.0,203.5,379.5,211.5,379.0,219.5,378.5" stroke="black" stroke-width="2" fill="none" />
<polyline points="194.0,368.0,186.0,369.0,178.0,370.0,170.0,370.5,161.5,371.0" stroke="black" stroke-width="2" fill="none" />
<polyline points="155.5,336.5,147.5,344.5,139.5,352.5,131.5,360.5,124.0,368.5,116.0,376.0,108.0,383.5" stroke="black" stroke-width="2" fill="none" />
<polyline points="115.5,383.0,124.0,375.5,132.5,368.5,140.5,360.5,148.0,353.0,155.5,345.5,163.0,337.5,171.0,329.5" stroke="black" stroke-width="2" fill="none" />
<polyline points="147.0,338.5,139.0,346.0,131.5,354.0,123.5,361.5,116.0,369.5,108.0,377.0" stroke="black" stroke-width="2" fill="none" />
<polyline points="114.5,368.5,123.0,368.0" stroke="black" stroke-width="2" fill="none" />
<polyline points="121.5,373.5,108.5,381.5" stroke="black" stroke-width="2" fill="none" />
<polyline points="99.0,376.5,91.5,377.5,84.0,378.5,76.0,379.0" stroke="black" stroke-width="2" fill="none" />
<polyline points="90.5,385.0,98.0,377.5,106.0,370.5,114.0,363.5,122.0,356.0,129.5,348.5,137.0,341.0" stroke="black" stroke-width="2" fill="none" />
<polyline points="130.0,338.5,122.0,346.0,113.5,354.0,106.0,361.5,98.5,369.0,91.5,376.5,84.0,384.5" stroke="black" stroke-width="2" fill="none" />
<polyline points="74.5,386.5,83.0,378.5,91.5,371.0,100.0,363.5,108.0,356.0" stroke="black" stroke-width="2" fill="none" />
<polyline points="100.5,357.0,92.5,364.0,84.5,372.0,76.0,379.5" stroke="black" stroke-width="2" fill="none" />
<polyline points="75.0,368.0,83.5,360.0,92.0,352.5" stroke="black" stroke-width="2" fill="none" />
<polyline points="84.5,354.5,76.5,362.5" stroke="black" stroke-width="2" fill="none" />
<polyline points="66.5,357.0,74.5,356.5,82.5,356.0,90.5,355.5,98.5,354.5,107.0,353.5,115.0,354.0,123.5,354.0,132.0,354.0,141.0,353.5,150.0,353.0,157.5,352.0,165.0,351.5,173.0,351.0,180.5,350.5,188.5,350.0,196.0,349.5,204.0,349.0,212.0,348.5,220.0,348.5,228.0,347.5,236.0,347.0,244.5,346.5,252.5,346.0,261.0,346.0,268.5,345.5,276.5,345.5,284.0,344.5,291.5,344.0,299.5,343.5,307.5,342.5,315.5,342.5,323.5,341.5,331.5,341.0,339.0,341.0,347.0,340.5,355.0,340.0,363.0,339.5,371.5,339.5,380.0,339.0,388.0,338.5,395.5,338.0,403.0,337.5,410.5,337.0,418.5,336.5,426.5,336.0,434.5,335.0,442.0,335.0,450.0,334.5,458.0,334.0,466.5,333.5,474.0,333.0,482.0,332.5,490.0,331.5,498.5,330.5,506.5,330.0,514.5,329.5" stroke="black" stroke-width="2" fill="none" />
<polyline points="517.0,291.0,509.0,299.0,500.0,307.0,491.5,314.5,483.0,322.0,475.0,329.0,466.5,336.0,458.0,343.5" stroke="black" stroke-width="2" fill="none" />
<polyline points="451.5,342.5,459.5,335.0,468.5,327.0,477.0,320.0,485.0,313.0,493.5,306.0,502.0,299.0,509.5,292.0,517.0,284.5" stroke="black" stroke-width="2" fill="none" />
<polyline points="507.5,285.0,499.5,292.5,491.5,299.0,483.0,305.5,475.0,312.5,467.0,320.5,458.5,328.0,450.5,336.0" stroke="black" stroke-width="2" fill="none" />
<polyline points="444.5,337.5,452.5,330.0,461.0,322.0,468.5,314.5,476.5,307.0,484.0,299.0,491.5,290.5,499.0,283.5" stroke="black" stroke-width="2" fill="none" />
<polyline points="490.5,282.5,482.0,290.0,474.5,297.5,466.5,305.5,459.0,313.0,451.0,320.5,444.0,328.0,437.0,335.0" stroke="black" stroke-width="2" fill="none" />
<polyline points="434.0,337.5,442.5,336.5,451.0,336.0,459.5,335.0,468.0,334.5,476.0,334.0,484.0,333.5,492.0,333.0,500.5,333.0,509.0,332.0,516.5,331.5" stroke="black" stroke-width="2" fill="none" />
<polyline points="484.0,284.0,476.0,291.5,467.5,300.0,459.5,307.5,452.0,315.5,444.0,323.0,436.0,330.0,428.5,337.0" stroke="black" stroke-width="2" fill="none" />
<polyline points="420.5,337.0,428.0,329.5,436.0,322.0,444.0,315.0,451.5,308.0,459.0,300.0,467.0,292.5,474.5,284.5" stroke="black" stroke-width="2" fill="none" />
<polyline points="467.0,285.5,459.5,292.5,451.5,300.0,444.0,307.0,436.5,314.0,429.0,321.5,421.0,328.5,413.0,336.0" stroke="black" stroke-width="2" fill="none" />
<polyline points="404.5,337.0,412.0,329.0,419.5,321.0,428.0,313.0,435.5,305.0,443.5,297.5,451.5,290.0,460.0,282.5,468.5,275.0" stroke="black" stroke-width="2" fill="none" />
<polyline points="461.0,274.5,453.0,282.0,445.0,289.5,436.5,297.5,427.5,305.5,419.0,313.5,410.5,321.5,402.0,330.0,394.0,338.0" stroke="black" stroke-width="2" fill="none" />
<polyline points="388.0,337.5,396.0,330.0,404.5,322.0,412.5,314.0,420.5,306.0,428.5,298.0,437.0,290.0,444.5,282.0,452.5,274.5,460.5,267.0" stroke="black" stroke-width="2" fill="none" />
<polyline points="450.0,266.5,442.0,274.0,434.5,282.5,427.0,290.5,419.5,298.0,412.0,305.0,404.0,313.0,395.5,321.0,387.5,328.5" stroke="black" stroke-width="2" fill="none" />
<polyline points="382.0,325.5,390.0,319.0,397.5,312.0,405.0,304.5,412.0,297.5,420.0,289.5,427.5,281.5,435.5,274.0,443.0,266.5,451.0,259.5" stroke="black" stroke-width="2" fill="none" />
<polyline points="441.5,259.0,433.5,267.0,425.5,274.5,418.0,282.0,410.0,290.0,402.0,297.0,394.0,305.0,386.5,312.5,378.0,320.5,370.0,328.5" stroke="black" stroke-width="2" fill="none" />
<polyline points="365.5,330.5,373.5,329.5,381.5,329.0,389.5,329.0,397.0,328.5,404.5,328.5,412.0,328.5,419.0,328.0,426.5,327.5,434.5,327.0,442.5,326.5,450.5,326.0,458.5,325.5,466.5,324.0,475.0,323.0,483.0,322.0,491.0,321.0,499.5,320.5,507.5,320.0,515.5,319.5" stroke="black" stroke-width="2" fill="none" />
<polyline points="515.5,253.0,508.0,253.5,500.0,254.0" stroke="black" stroke-width="2" fill="none" />
<polyline points="509.5,244.5,517.0,244.5" stroke="black" stroke-width="2" fill="none" />
<polyline points="517.5,236.5,509.5,236.5" stroke="black" stroke-width="2" fill="none" />
<polyline points="441.5,252.5,433.5,260.0,426.0,267.5,418.0,275.0,410.5,282.5,402.5,290.5,394.5,298.0,386.0,305.0,378.0,312.5,370.0,320.5,362.5,328.0" stroke="black" stroke-width="2" fill="none" />
<polyline points="354.5,327.0,363.0,318.5,371.0,311.0,379.0,303.5,387.0,296.5,395.5,289.0,403.5,281.5,412.0,274.0,420.5,266.5,428.5,259.0" stroke="black" stroke-width="2" fill="none" />
<polyline points="428.0,263.0,436.0,262.5,443.5,262.0,451.0,261.5" stroke="black" stroke-width="2" fill="none" />
<polyline points="453.0,250.5,445.0,251.0,437.0,252.0,429.0,252.5" stroke="black" stroke-width="2" fill="none" />
<polyline points="432.0,250.5,425.0,258.5" stroke="black" stroke-width="2" fill="none" />
<polyline points="411.5,268.0,404.0,275.5,395.5,283.5,387.0,290.5,378.5,297.5,370.5,304.5,362.5,312.0,354.5,320.0,346.5,327.5" stroke="black" stroke-width="2" fill="none" />
<polyline points="338.5,326.5,346.5,319.5,355.0,312.5,363.0,305.0,371.5,298.0,379.5,291.0,387.5,284.5,395.5,277.5,403.0,270.5" stroke="black" stroke-width="2" fill="none" />
<polyline points="403.0,262.0,395.0,269.5,386.5,276.5,378.0,284.0,370.5,291.0,362.5,298.0,354.5,305.0,347.0,312.0,339.0,319.5" stroke="black" stroke-width="2" fill="none" />
<polyline points="332.0,319.5,340.0,311.5,347.5,303.5,355.0,296.0,363.0,288.5,371.5,281.5,379.5,274.5,387.5,267.0,396.0,259.5" stroke="black" stroke-width="2" fill="none" />
<polyline points="380.5,267.5,372.5,275.0,364.0,283.0,356.0,290.5,348.0,297.5,339.5,305.0,331.5,313.0,323.5,320.5" stroke="black" stroke-width="2" fill="none" />
<polyline points="322.5,322.0,331.0,321.0,338.5,320.5,346.5,320.0,354.5,319.5,362.5,319.5,371.0,319.0,379.5,318.0,388.0,317.0,396.5,316.5,404.5,315.5,412.5,315.5,420.5,315.0,429.0,315.0,437.0,314.5,445.0,314.5,452.5,314.5,459.5,315.0,467.5,314.5,475.5,314.5,483.5,313.5,491.5,313.0,499.5,312.0,507.5,310.5,515.0,309.5" stroke="black" stroke-width="2" fill="none" />
<polyline points="461.0,267.5,453.5,267.5,445.5,268.5,438.0,270.0,430.0,271.0,421.5,271.5,413.5,271.5,405.5,272.5,397.0,273.0,388.5,273.0,380.0,273.5,371.5,274.0,363.5,274.0,355.0,273.5,347.0,274.0" stroke="black" stroke-width="2" fill="none" />
<polyline points="355.0,268.0,363.0,267.5,371.5,266.5" stroke="black" stroke-width="2" fill="none" />
<polyline points="372.5,265.5,364.5,273.0,356.0,281.0,347.5,289.5,339.5,297.5,331.5,305.0,323.5,313.0,315.0,321.0" stroke="black" stroke-width="2" fill="none" />
<polyline points="314.5,310.5,323.0,303.5,331.5,296.5,339.5,289.0,347.5,281.5,355.0,275.0,362.5,267.5,370.5,260.0" stroke="black" stroke-width="2" fill="none" />
<polyline points="363.5,259.0,355.0,267.0,347.0,275.0,339.0,282.5,331.0,290.5,323.5,298.5,316.0,305.5,308.0,312.5" stroke="black" stroke-width="2" fill="none" />
<polyline points="306.0,290.0,314.0,289.0,322.0,288.5,330.0,288.0,338.5,287.5,346.5,286.5,354.5,286.0,362.5,285.5,370.0,285.0,378.0,284.5,386.5,284.5,394.5,283.5,402.5,283.5,410.5,283.5,418.5,283.0,426.5,283.0,434.5,283.0,443.0,282.5,451.5,282.0,460.5,281.5,469.0,281.5,476.5,281.0,484.0,279.5,491.0,279.0,498.5,278.0,507.0,278.0,514.5,276.5" stroke="black" stroke-width="2" fill="none" />
<polyline points="466.0,272.0,458.0,272.0,449.5,272.5,442.0,272.5,434.5,273.0,427.0,273.0,419.0,273.5,410.5,274.0,403.0,274.5,395.5,275.5,388.0,276.5,380.5,277.0,372.5,277.5,364.5,278.5,356.0,280.0,347.5,281.0,339.0,282.0,331.0,282.5" stroke="black" stroke-width="2" fill="none" />
<polyline points="337.0,271.0,314.5,279.5" stroke="black" stroke-width="2" fill="none" />
<polyline points="306.5,283.0,298.5,290.5,290.5,298.0,282.5,305.5" stroke="black" stroke-width="2" fill="none" />
<polyline points="276.5,305.5,285.0,298.0,293.0,291.0,301.5,283.5" stroke="black" stroke-width="2" fill="none" />
<polyline points="299.5,273.5,307.5,265.5,316.0,258.5,324.0,251.5,332.0,243.5" stroke="black" stroke-width="2" fill="none" />
<polyline points="324.0,244.0,316.0,251.0,307.5,258.5,299.5,266.5" stroke="black" stroke-width="2" fill="none" />
<polyline points="301.5,264.0,309.5,263.5,316.5,263.5,324.0,264.0,331.5,264.5,339.0,264.5" stroke="black" stroke-width="2" fill="none" />
<polyline points="339.0,250.5,347.5,249.5" stroke="black" stroke-width="2" fill="none" />
<polyline points="316.0,241.5,308.0,249.0,299.0,257.0,290.5,265.0" stroke="black" stroke-width="2" fill="none" />
<polyline points="290.0,258.0,298.0,251.0,305.5,244.0" stroke="black" stroke-width="2" fill="none" />
<polyline points="301.5,242.5,293.5,250.0" stroke="black" stroke-width="2" fill="none" />
<polyline points="291.5,242.0,299.5,235.0" stroke="black" stroke-width="2" fill="none" />
<polyline points="299.5,257.5,307.0,257.0,314.5,257.0,322.5,256.5,330.5,256.0,338.5,255.5,346.5,255.0" stroke="black" stroke-width="2" fill="none" />
<polyline points="299.0,210.5,306.5,203.0" stroke="black" stroke-width="2" fill="none" />
<polyline points="306.5,202.5,301.5,211.0" stroke="black" stroke-width="2" fill="none" />
<polyline points="299.0,207.5,307.0,213.0" stroke="black" stroke-width="2" fill="none" />
<polyline points="295.5,209.0,303.5,204.0,311.5,203.0,320.0,204.5,328.0,204.5,337.0,206.5,337.5,206.0,340.0,214.0,342.5,212.0" stroke="black" stroke-width="2" fill="none" />
<polyline points="379.5,199.5,371.5,200.5,363.5,201.5,355.5,201.5,347.0,201.5,339.0,202.5,331.0,203.0,323.0,204.0,315.0,204.0,308.0,204.5,300.0,204.5,292.0,204.5,283.5,205.0" stroke="black" stroke-width="2" fill="none" />
<polyline points="282.0,199.5,290.5,199.0,298.5,198.0,306.5,197.5,315.0,196.5,323.0,195.5,330.5,195.5,338.0,195.0,346.0,194.5,354.5,193.5,363.0,193.0,370.5,192.0,378.5,191.5" stroke="black" stroke-width="2" fill="none" />
<polyline points="370.5,183.5,362.0,184.5,354.0,184.0,346.0,184.5,338.0,185.0,330.5,185.5,322.0,186.5,314.0,187.0,306.5,187.5,299.0,188.0,291.0,188.5,283.0,189.0" stroke="black" stroke-width="2" fill="none" />
<polyline points="275.5,212.5,283.5,212.0,291.0,211.5,298.5,211.0,306.0,210.5,314.5,210.5,323.0,210.0,332.0,210.0,340.5,210.0,348.5,210.0,357.0,209.5,364.5,209.0,372.5,208.5,380.0,208.5" stroke="black" stroke-width="2" fill="none" />
<polyline points="371.5,249.5,363.0,250.5,355.0,251.0,347.0,251.5,339.0,251.0,331.0,250.5,323.5,250.5,315.5,250.0,307.0,250.5,298.5,251.0,290.5,251.5,282.5,252.0,274.5,252.5" stroke="black" stroke-width="2" fill="none" />
<polyline points="274.0,245.0,282.0,244.5,290.0,243.5,298.0,243.0,306.5,243.0,315.0,243.0,322.5,242.5,330.0,243.0,338.0,243.0,346.0,242.5,354.5,241.5,362.5,241.0,371.0,240.5,379.5,240.0,387.5,239.5" stroke="black" stroke-width="2" fill="none" />
<polyline points="371.0,231.5,362.5,231.5,354.0,232.0,346.0,232.0,339.0,232.0,331.0,232.5,323.0,233.0,315.0,233.5,307.5,234.0,299.5,234.5,291.5,235.0,283.5,235.5,275.5,236.0" stroke="black" stroke-width="2" fill="none" />
<polyline points="275.5,228.0,283.5,227.0,291.0,226.5,299.0,226.0,307.0,225.5,315.0,225.5,322.5,225.5,331.0,226.0,339.0,226.0,347.5,225.5,355.0,225.0,363.0,224.5,371.5,225.0" stroke="black" stroke-width="2" fill="none" />
<polyline points="440.0,249.5,449.0,257.5,458.0,266.0,467.0,274.5" stroke="black" stroke-width="2" fill="none" />
<polyline points="518.0,282.0,509.0,283.0,500.5,283.5,492.0,284.5,483.5,285.5,475.5,286.0,467.5,286.5,459.5,287.5,451.5,288.0,443.5,288.5,435.5,289.0,427.5,289.0,419.5,289.0,411.5,289.0,403.5,289.5,396.0,290.0,388.5,290.5,381.0,291.0,373.0,291.5,365.5,291.5,357.5,292.0,348.5,292.5,340.0,293.5,331.5,294.0,323.0,294.5,315.0,294.5,307.0,295.0,299.0,295.5,291.0,295.5,283.0,296.0" stroke="black" stroke-width="2" fill="none" />
<polyline points="283.5,293.0,275.0,300.5,266.5,308.0" stroke="black" stroke-width="2" fill="none" />
<polyline points="264.0,306.5,273.0,306.5,281.0,306.0,289.5,305.5,298.0,305.0,306.5,304.5,315.0,304.0,323.0,303.0,331.0,302.0,339.0,301.0,346.5,300.0,354.5,300.0,362.0,299.5,370.0,299.0,378.5,298.5,386.5,297.5,394.5,296.5,401.5,296.0,409.5,295.5,417.0,295.0,425.0,294.0,433.0,294.0,441.5,293.5,449.5,293.0,458.0,293.0,466.0,293.0,474.0,293.0,482.5,293.0,491.0,292.5,499.0,292.0,507.5,291.0,515.0,290.5" stroke="black" stroke-width="2" fill="none" />
<polyline points="516.5,272.0,508.5,272.0,500.0,272.5,491.5,273.5,483.0,274.5,475.0,274.5,466.5,275.0,458.5,275.5,450.0,275.5,441.5,276.5,434.0,276.5,426.5,277.0,419.0,277.0,411.0,277.5,403.0,278.0,395.5,278.5,388.5,279.0,381.0,279.5,373.5,279.5,365.5,279.5,357.0,280.5,348.5,281.0,340.0,281.5,331.5,282.5,323.0,282.5,315.0,283.0,307.5,283.5,300.0,284.0,292.0,285.0,284.0,285.5" stroke="black" stroke-width="2" fill="none" />
<polyline points="284.0,277.5,292.5,277.0,300.5,276.0,308.5,275.5,316.0,274.5,323.5,274.0,331.5,274.0,339.0,274.0,347.0,273.5,355.5,273.5,364.0,273.0,372.0,272.5,379.5,272.0,387.0,272.0,394.5,271.5,402.0,271.0,410.5,271.0,418.5,270.5,426.5,270.5,434.5,270.5,442.5,270.0,450.5,269.5,459.0,269.0,467.5,268.5,476.5,268.0,484.5,267.0,492.5,266.5,500.0,266.0,508.0,265.5,515.5,265.0" stroke="black" stroke-width="2" fill="none" />
<polyline points="467.0,258.0,458.5,259.0,450.5,260.5,442.5,261.0,434.5,261.5,426.5,262.0,418.5,262.5,411.0,263.0,404.0,263.5,396.5,263.5,389.0,263.5,381.5,264.0,373.5,264.0,365.5,264.5,357.5,265.5,349.5,265.5,341.0,266.5,332.5,266.5,324.5,267.0,316.0,267.5,308.0,267.5,300.0,268.0,292.0,268.5,284.5,269.5,277.0,270.0" stroke="black" stroke-width="2" fill="none" />
<polyline points="276.0,261.5,284.0,261.0,292.5,260.5,300.5,260.0,309.0,260.0,316.5,259.5,324.5,259.5,332.0,258.5,339.5,258.0,347.5,257.5,355.5,256.5,363.5,256.5,371.5,255.5,379.5,255.0,387.0,255.0,395.0,254.5,403.0,254.0,411.0,253.5,419.5,253.5,428.0,253.0,436.0,252.5,443.5,252.0,451.0,251.5,458.5,251.0" stroke="black" stroke-width="2" fill="none" />
<polyline points="268.0,299.0,260.0,307.0" stroke="black" stroke-width="2" fill="none" />
<polyline points="260.5,310.5,268.5,310.0,276.5,310.0,284.0,309.5,292.0,308.5,300.0,307.5,308.0,307.0,316.0,306.0,323.5,305.5,330.5,305.0,338.5,305.0,347.0,304.0,354.5,303.5,362.5,303.0,370.5,302.5,378.5,302.5,387.0,302.0,395.5,301.0,404.0,300.0,412.5,299.5,420.5,298.5,428.5,298.5,436.5,298.0,445.0,298.0,453.0,297.5,461.0,297.5,468.5,297.5,475.5,298.0,483.5,297.5,491.5,297.5,499.5,296.5,507.5,296.0,515.5,295.0" stroke="black" stroke-width="2" fill="none" />
<polyline points="371.5,152.0,363.5,152.5,355.0,153.5,347.0,153.5,339.0,153.5,331.0,153.5,323.5,154.0,315.5,154.0,307.5,154.0,299.5,154.5,292.0,155.0,284.0,156.0,276.5,156.5" stroke="black" stroke-width="2" fill="none" />
<polyline points="279.0,161.0,287.0,160.0,295.0,159.0,302.0,155.0" stroke="black" stroke-width="2" fill="none" />
<polyline points="275.5,148.5,284.0,148.5,292.5,149.0,301.0,149.0,308.5,148.5,316.5,148.0,324.5,148.0,332.0,148.0,340.0,147.0,348.0,146.5,355.5,146.0,364.0,145.0,372.5,144.0,380.5,143.0" stroke="black" stroke-width="2" fill="none" />
<polyline points="325.5,83.5,317.5,91.0,309.0,99.0" stroke="black" stroke-width="2" fill="none" />
<polyline points="307.0,91.0,315.5,90.0,324.0,90.0" stroke="black" stroke-width="2" fill="none" />
<polyline points="315.0,84.0,307.0,92.0,298.5,99.5" stroke="black" stroke-width="2" fill="none" />
<polyline points="292.5,99.0,300.0,92.0,307.5,84.0" stroke="black" stroke-width="2" fill="none" />
<polyline points="292.0,82.5,299.5,82.5,307.0,82.0,315.0,82.0,323.0,82.0,330.5,81.5,339.0,81.5,347.0,81.0" stroke="black" stroke-width="2" fill="none" />
<polyline points="293.5,92.0,285.5,99.5,277.5,106.5,270.0,114.0,261.5,121.5,253.5,128.5" stroke="black" stroke-width="2" fill="none" />
<polyline points="252.0,124.0,260.0,124.0,268.5,123.5,277.0,123.0" stroke="black" stroke-width="2" fill="none" />
<polyline points="268.5,125.0,260.5,132.0,252.0,139.0" stroke="black" stroke-width="2" fill="none" />
<polyline points="249.0,137.5,257.0,137.0" stroke="black" stroke-width="2" fill="none" />
<polyline points="259.5,130.5,267.0,129.5" stroke="black" stroke-width="2" fill="none" />
<polyline points="268.0,131.5,260.0,139.5,251.5,147.5" stroke="black" stroke-width="2" fill="none" />
<polyline points="258.0,147.0,250.5,154.0" stroke="black" stroke-width="2" fill="none" />
<polyline points="243.0,150.5,251.0,150.5,259.5,149.5" stroke="black" stroke-width="2" fill="none" />
<polyline points="259.0,152.5,267.0,139.5" stroke="black" stroke-width="2" fill="none" />
<polyline points="275.5,130.5,267.5,131.5,259.0,132.0,251.0,133.0" stroke="black" stroke-width="2" fill="none" />
<polyline points="251.0,121.5,259.0,108.0,267.0,102.0,275.0,94.5,283.0,89.0,290.5,86.5,299.0,84.0,307.5,81.5,315.5,81.0,324.0,82.0,331.5,84.0,340.0,86.0,347.5,90.0,355.5,98.0,363.0,110.0" stroke="black" stroke-width="2" fill="none" />
<polyline points="348.5,92.5,340.5,93.0,332.5,93.5,324.0,93.5,316.0,94.0,308.0,95.0,299.5,95.5,291.5,96.5,283.5,97.0" stroke="black" stroke-width="2" fill="none" />
<polyline points="282.0,106.0,290.0,101.0,298.0,100.0,306.0,98.5,314.0,98.5,321.5,100.5,329.0,101.5,336.5,100.5,344.0,103.0,351.5,105.0,359.5,115.0" stroke="black" stroke-width="2" fill="none" />
<polyline points="355.0,89.5,347.0,90.0,339.5,91.0,332.0,91.5,324.0,92.0,316.0,92.5,308.0,93.0,299.5,93.0,291.0,93.0,283.0,93.5,275.0,93.5" stroke="black" stroke-width="2" fill="none" />
<polyline points="267.0,102.0,275.0,102.0,283.0,102.0,291.0,102.0,299.0,101.0,307.0,100.5,315.5,100.0,324.0,99.0,332.5,98.0,341.0,97.5,349.5,97.0,357.0,97.0,364.5,96.5" stroke="black" stroke-width="2" fill="none" />
<polyline points="276.0,107.5,268.5,108.0,260.5,109.0" stroke="black" stroke-width="2" fill="none" />
<polyline points="262.5,114.0,270.5,106.5" stroke="black" stroke-width="2" fill="none" />
<polyline points="271.5,111.0,279.0,103.0,273.0,108.5,269.0,117.5,273.0,124.5,274.0,132.0,267.0,140.0,262.0,148.0,260.0,156.0,259.0,163.5,259.0,171.5,257.0,179.5,253.5,187.5,253.5,197.5,256.5,203.0,259.0,211.0,259.5,219.0,260.5,226.5,261.5,234.5,261.5,242.5,260.5,250.5,259.0,258.5,258.0,266.5,254.5,274.5,255.0,282.0,249.5,290.5,245.0,298.5,253.0,300.5,261.0,302.5,269.0,304.0,277.0,306.0,285.0,309.0,292.5,311.5,300.5,313.5,308.5,315.5,316.5,318.5,324.5,320.5,332.0,323.0,340.0,325.0,348.0,326.5,356.0,327.5,364.0,328.5,372.0,329.5,380.0,331.0,388.5,332.0,397.0,332.0,405.5,333.0,413.5,334.5,421.5,335.5,430.0,336.0,438.0,338.0,445.5,338.5,453.5,340.5,461.5,342.5,469.0,344.0,477.0,346.0,485.0,348.0,493.5,352.5,501.5,357.5,509.5,363.5" stroke="black" stroke-width="2" fill="none" />
<polyline points="515.5,278.5,507.0,279.0,499.0,279.0,491.0,278.5,483.0,279.0,474.5,279.5,466.5,280.0,458.5,280.0,450.5,280.0,443.0,280.0,435.5,280.0,428.0,280.5,419.5,281.5,411.5,282.5,403.5,284.0,396.0,285.0,388.0,286.0,380.0,287.0,372.0,287.0,363.5,288.0,355.5,289.0,347.5,290.0,339.5,290.0,332.0,290.0,324.5,290.5,316.0,290.5,307.0,291.0,299.0,291.5,291.0,293.0,283.0,294.0,275.0,295.0,267.0,295.5" stroke="black" stroke-width="2" fill="none" />
<polyline points="251.5,291.5,243.5,298.5" stroke="black" stroke-width="2" fill="none" />
<polyline points="245.0,296.5,236.5,297.0" stroke="black" stroke-width="2" fill="none" />
<polyline points="235.5,298.0,243.5,290.5,251.0,283.0" stroke="black" stroke-width="2" fill="none" />
<polyline points="242.5,284.5,234.0,292.0,226.0,299.5" stroke="black" stroke-width="2" fill="none" />
<polyline points="227.5,292.0,236.0,284.5" stroke="black" stroke-width="2" fill="none" />
<polyline points="229.0,284.0,221.0,291.5" stroke="black" stroke-width="2" fill="none" />
<polyline points="214.0,293.5,222.0,293.0,230.0,292.5,238.0,292.0,246.0,292.0,253.5,292.0" stroke="black" stroke-width="2" fill="none" />
<polyline points="253.0,286.5,245.5,286.5,237.5,287.5,229.5,288.5,220.5,289.5,212.5,290.5" stroke="black" stroke-width="2" fill="none" />
<polyline points="211.0,289.5,219.0,281.5" stroke="black" stroke-width="2" fill="none" />
<polyline points="217.5,274.5,209.5,282.0,202.0,289.5" stroke="black" stroke-width="2" fill="none" />
<polyline points="202.5,285.5,210.0,277.5" stroke="black" stroke-width="2" fill="none" />
<polyline points="202.5,268.5,195.0,269.0,187.0,269.0,179.0,270.0,171.0,270.5" stroke="black" stroke-width="2" fill="none" />
<polyline points="180.5,260.5,188.5,260.0" stroke="black" stroke-width="2" fill="none" />
<polyline points="194.5,274.0,202.5,283.0,210.0,289.5,218.0,293.5,226.0,295.5,234.0,297.0,241.5,299.0,249.5,291.5" stroke="black" stroke-width="2" fill="none" />
<polyline points="249.0,297.0,257.0,297.0,265.5,295.0,273.0,291.5,281.0,288.5,289.0,286.5,297.0,286.0,305.0,284.5,313.0,282.5,321.0,279.5,329.0,276.5,337.0,273.5,344.5,271.5,352.5,266.0,360.0,256.0,368.0,258.5,376.0,262.5,384.5,260.5,392.5,258.5,400.5,259.5,408.5,261.0,416.5,260.0,424.5,258.0,432.5,249.5,440.5,250.5,448.0,257.5,456.0,265.0,464.0,271.0,472.0,278.0,480.0,278.5,488.5,279.5,496.5,279.5,504.0,278.5,512.0,279.5" stroke="black" stroke-width="2" fill="none" />
<polyline points="260.5,268.0,252.5,268.0" stroke="black" stroke-width="2" fill="none" />
<polyline points="254.0,261.0,262.0,260.5" stroke="black" stroke-width="2" fill="none" />
<polyline points="260.5,253.0,252.5,253.0" stroke="black" stroke-width="2" fill="none" />
<polyline points="258.5,244.5,250.5,245.0,242.5,245.5" stroke="black" stroke-width="2" fill="none" />
<polyline points="238.0,238.0,245.5,237.0,253.0,236.5,261.0,236.0" stroke="black" stroke-width="2" fill="none" />
<polyline points="268.5,228.5,261.0,229.5,253.0,230.0,244.5,230.5,236.5,231.0" stroke="black" stroke-width="2" fill="none" />
<polyline points="235.0,204.5,243.5,204.0,251.5,203.5" stroke="black" stroke-width="2" fill="none" />
<polyline points="253.0,196.5,245.5,196.5,237.0,197.0" stroke="black" stroke-width="2" fill="none" />
<polyline points="237.0,189.5,245.0,189.5,253.0,189.0,260.5,188.5" stroke="black" stroke-width="2" fill="none" />
<polyline points="260.0,180.5,252.5,181.0,244.5,181.0" stroke="black" stroke-width="2" fill="none" />
<polyline points="245.0,176.0,252.5,175.5,260.0,174.5" stroke="black" stroke-width="2" fill="none" />
<polyline points="251.5,172.5,259.0,165.5" stroke="black" stroke-width="2" fill="none" />
<polyline points="251.0,163.0,259.0,155.5" stroke="black" stroke-width="2" fill="none" />
<polyline points="259.5,167.0,251.5,167.0,243.5,167.5" stroke="black" stroke-width="2" fill="none" />
<polyline points="242.0,171.0,250.0,170.0,252.5,174.5,248.5,182.5,249.0,191.0,251.5,186.0,252.0,180.5" stroke="black" stroke-width="2" fill="none" />
<polyline points="244.5,174.5,249.0,176.5,242.5,183.5" stroke="black" stroke-width="2" fill="none" />
<polyline points="242.0,158.0,250.5,158.0,258.5,157.5" stroke="black" stroke-width="2" fill="none" />
<polyline points="266.5,140.5,259.0,141.0,251.0,142.0,243.5,142.5" stroke="black" stroke-width="2" fill="none" />
<polyline points="251.5,116.5,259.5,116.5,268.0,116.0,276.0,115.0" stroke="black" stroke-width="2" fill="none" />
<polyline points="267.5,120.0,259.5,120.5" stroke="black" stroke-width="2" fill="none" />
<polyline points="155.0,219.5,147.5,220.0" stroke="black" stroke-width="2" fill="none" />
<polyline points="157.0,229.0,149.0,230.0,141.0,231.5,133.0,232.5,125.5,233.0,117.0,233.5,108.5,234.5,100.5,234.5,92.5,235.0,84.0,235.0,76.5,235.5,68.0,236.0,59.5,235.5,51.0,235.5,43.0,235.5,35.0,235.5,27.0,236.0" stroke="black" stroke-width="2" fill="none" />
<polyline points="27.0,232.0,35.0,224.5,42.5,217.0,50.0,209.0,58.0,201.0,66.0,193.0,73.5,185.0,81.5,177.5,89.0,170.0,97.0,162.0" stroke="black" stroke-width="2" fill="none" />
<polyline points="97.5,162.5,104.5,170.5,108.5,178.5,111.5,186.5,114.0,195.0,117.0,203.0,118.5,211.0,121.5,219.0,126.0,227.0,129.0,235.5,133.0,243.5" stroke="black" stroke-width="2" fill="none" />
<polyline points="131.5,244.5,123.5,252.0" stroke="black" stroke-width="2" fill="none" />
<polyline points="117.5,248.5,125.5,248.0,133.5,248.5" stroke="black" stroke-width="2" fill="none" />
<polyline points="129.5,236.5,122.0,243.5,114.5,251.5" stroke="black" stroke-width="2" fill="none" />
<polyline points="107.5,252.5,115.0,245.0,122.5,237.5,130.5,230.0" stroke="black" stroke-width="2" fill="none" />
<polyline points="133.0,232.0,140.5,243.0,148.5,249.5,156.5,250.5" stroke="black" stroke-width="2" fill="none" />
<polyline points="162.0,244.0,154.0,245.0,146.5,246.0" stroke="black" stroke-width="2" fill="none" />
<polyline points="137.0,269.5,129.0,270.5,121.0,271.0" stroke="black" stroke-width="2" fill="none" />
<polyline points="123.0,276.5,131.0,276.5,139.0,276.5,147.5,276.0,156.5,275.5,165.5,274.5,173.0,273.5,181.0,273.0,189.0,272.0,197.0,271.5,204.5,271.0,212.5,271.0,220.5,270.5,229.0,270.5,237.0,270.5,245.0,270.0,253.0,269.5,261.5,269.5" stroke="black" stroke-width="2" fill="none" />
<polyline points="235.0,302.0,242.5,300.5,250.5,299.5,259.0,299.0,267.0,298.5,275.0,298.5,283.0,297.5,291.0,297.0,299.5,297.0,307.0,296.5,315.5,296.0,323.5,295.5,331.5,294.5,340.0,294.0,348.0,293.0,356.0,292.5,364.5,292.5,372.5,292.0,380.5,291.5,389.0,291.0,397.0,290.5,405.0,290.0,413.0,289.0,421.0,288.5,428.5,288.5,436.0,288.5,444.0,288.0,452.0,288.0,459.5,287.5,467.0,287.0,475.0,286.5,483.5,286.0,491.0,285.5,499.0,285.0,507.0,284.5,515.0,284.0" stroke="black" stroke-width="2" fill="none" />
<polyline points="124.5,218.5,116.0,226.0,108.0,233.5" stroke="black" stroke-width="2" fill="none" />
<polyline points="107.0,233.5,113.5,242.0" stroke="black" stroke-width="2" fill="none" />
<polyline points="116.5,243.5,125.0,242.5,133.5,242.0" stroke="black" stroke-width="2" fill="none" />
<polyline points="123.0,227.0,115.0,234.5,107.5,241.5,99.5,249.0" stroke="black" stroke-width="2" fill="none" />
<polyline points="100.0,253.5,107.5,253.0,115.5,253.0,123.5,252.5,131.5,252.0,139.5,251.0" stroke="black" stroke-width="2" fill="none" />
<polyline points="116.5,283.5,125.0,283.0,133.5,283.0,141.0,283.5,149.0,284.0,156.5,284.0,163.5,283.0,170.5,282.5,177.5,281.5,185.0,281.0,193.0,280.5,201.0,280.0,209.5,279.5,217.5,279.0,225.5,279.0,233.5,278.5,241.5,277.5,249.5,276.5,257.5,276.0" stroke="black" stroke-width="2" fill="none" />
<polyline points="124.5,210.5,116.5,218.5,107.5,226.5,99.5,234.0,91.5,241.5,83.5,249.0" stroke="black" stroke-width="2" fill="none" />
<polyline points="76.5,248.5,85.0,241.0,92.5,233.0,99.5,225.5,107.0,218.0,114.5,210.0,123.0,203.0" stroke="black" stroke-width="2" fill="none" />
<polyline points="115.0,203.5,107.5,211.0,99.0,218.5,91.0,226.0,83.0,233.5,75.0,241.0,67.0,248.5" stroke="black" stroke-width="2" fill="none" />
<polyline points="59.5,247.5,67.0,240.0,75.0,233.0,83.0,226.0,90.5,219.0,98.5,212.5,106.5,205.0,114.5,197.5" stroke="black" stroke-width="2" fill="none" />
<polyline points="116.0,188.5,107.5,196.0,99.0,203.5,90.5,211.0,82.5,218.5,74.5,226.0,66.5,233.0,58.0,241.0,50.0,248.5" stroke="black" stroke-width="2" fill="none" />
<polyline points="44.5,252.0,52.5,251.5,60.0,251.5,68.0,251.0" stroke="black" stroke-width="2" fill="none" />
<polyline points="69.0,262.0,61.5,262.5,54.0,262.5" stroke="black" stroke-width="2" fill="none" />
<polyline points="53.0,278.5,61.0,278.0,68.0,277.5,75.5,277.0,83.5,275.5,91.0,275.0,99.5,274.5" stroke="black" stroke-width="2" fill="none" />
<polyline points="92.0,248.5,100.0,241.0" stroke="black" stroke-width="2" fill="none" />
<polyline points="100.0,233.0,76.0,241.0,83.5,238.5,91.5,235.5,99.0,233.5,107.0,234.5" stroke="black" stroke-width="2" fill="none" />
<polyline points="124.0,221.5,116.0,221.5,108.0,221.5,100.0,221.5,92.0,222.5,84.0,223.5,75.5,224.5,67.5,225.5,58.5,226.0" stroke="black" stroke-width="2" fill="none" />
<polyline points="61.5,217.5,69.5,216.5,77.0,216.0,85.0,215.5,93.5,215.0,101.5,215.0,110.0,214.5,118.0,214.0" stroke="black" stroke-width="2" fill="none" />
<polyline points="120.0,214.0,128.0,227.0,137.0,238.0,142.5,245.5" stroke="black" stroke-width="2" fill="none" />
<polyline points="114.5,206.0,106.0,206.0,98.0,207.0,90.0,208.0,82.0,208.5,74.0,209.0,65.5,210.0" stroke="black" stroke-width="2" fill="none" />
<polyline points="73.0,201.0,81.5,200.5,90.0,200.0,98.5,199.0,107.0,198.5,115.5,197.5" stroke="black" stroke-width="2" fill="none" />
<polyline points="107.5,189.0,99.5,196.5,91.5,204.5,83.5,211.5,75.5,218.5,67.5,225.5,59.0,233.5,51.5,241.5,43.5,249.0" stroke="black" stroke-width="2" fill="none" />
<polyline points="37.0,249.0,44.5,241.0,52.5,233.5,60.5,225.5,69.0,218.0,77.0,210.5,85.0,203.5,93.5,196.0,102.0,188.5,110.0,180.5" stroke="black" stroke-width="2" fill="none" />
<polyline points="110.0,174.0,102.0,181.0,93.5,187.5,85.5,194.5,77.0,202.5,69.0,209.5,61.0,217.0,53.0,224.5,45.0,232.0,37.0,239.5" stroke="black" stroke-width="2" fill="none" />
<polyline points="37.5,242.5,45.5,242.0,53.5,241.5,61.5,241.0,69.0,240.0,77.0,239.5,85.0,238.0" stroke="black" stroke-width="2" fill="none" />
<polyline points="85.0,195.0,93.0,194.5,101.5,193.5,109.5,193.0" stroke="black" stroke-width="2" fill="none" />
<polyline points="107.5,184.5,99.5,185.0,91.5,186.0" stroke="black" stroke-width="2" fill="none" />
<polyline points="83.0,178.0,91.0,177.5,99.0,177.0" stroke="black" stroke-width="2" fill="none" />
<polyline points="98.5,169.0,91.0,176.5,83.0,184.0,74.5,192.0,66.0,199.5,57.5,207.5,50.0,215.0,42.0,223.0,33.5,231.0" stroke="black" stroke-width="2" fill="none" />
<polyline points="36.5,234.5,44.0,234.0,52.0,233.5,60.0,233.0,67.5,232.5,75.5,231.5,84.0,231.0,93.0,230.5,101.0,229.5,109.0,228.5,117.5,227.5,125.5,227.0" stroke="black" stroke-width="2" fill="none" />
<polyline points="139.5,239.0,131.0,239.0,123.0,239.0,114.5,239.5,107.0,240.5,99.0,241.5,91.5,242.0,83.5,243.0,76.0,244.0,68.0,244.0,60.5,244.0,52.5,244.5,44.5,245.5,36.5,246.5" stroke="black" stroke-width="2" fill="none" />
<polyline points="37.0,248.5,44.5,249.0,52.0,248.5,59.5,248.5" stroke="black" stroke-width="2" fill="none" />
<polyline points="37.0,259.5,28.5,265.5" stroke="black" stroke-width="2" fill="none" />
<polyline points="37.0,270.5,45.0,269.5,53.0,269.0,61.0,268.0,68.5,266.5,77.0,266.0,84.5,266.0,92.5,266.0,99.5,265.5" stroke="black" stroke-width="2" fill="none" />
<polyline points="58.0,286.5,49.5,286.5" stroke="black" stroke-width="2" fill="none" />
<polyline points="42.0,289.5,42.0,289.0,41.0,297.0,42.0,303.0,50.5,311.0,58.0,308.5,66.5,308.5,74.5,309.0,83.0,309.0" stroke="black" stroke-width="2" fill="none" />
<polyline points="82.5,331.5,74.5,338.5" stroke="black" stroke-width="2" fill="none" />
<polyline points="73.5,339.0,82.0,339.0,90.5,337.5" stroke="black" stroke-width="2" fill="none" />
<polyline points="85.0,337.5,92.5,330.5" stroke="black" stroke-width="2" fill="none" />
<polyline points="100.0,330.5,91.5,338.0,83.5,345.5" stroke="black" stroke-width="2" fill="none" />
<polyline points="76.5,343.0,84.5,342.0,92.5,341.5,100.5,340.5,109.0,340.0,116.5,339.5,124.5,339.0,132.0,338.5,139.5,338.0,147.5,337.5,155.5,337.5,163.0,337.0,171.0,336.0,178.5,335.5,186.0,335.0,194.0,334.5,201.5,333.0,210.0,332.0,218.0,331.0,225.5,330.5,233.5,330.5,241.0,329.5,249.0,329.5,257.5,329.0,266.5,328.0,275.0,327.5,283.0,327.0,291.5,326.5,300.0,325.5,308.0,325.0,316.0,324.0,324.0,323.5,331.5,323.0,339.0,322.5,347.0,322.5,355.0,322.0,363.0,321.5,371.0,321.5,379.0,321.5,387.0,321.0,395.0,321.0,402.5,320.0,411.0,320.0,419.5,319.5,428.5,319.0,437.0,319.0,444.5,318.5,452.0,317.5,459.5,317.0,467.5,316.5,475.5,316.5,483.5,315.5,491.5,315.0,499.5,314.5,508.0,315.0,516.0,314.5" stroke="black" stroke-width="2" fill="none" />
<polyline points="212.5,371.0,204.5,372.0,196.5,372.5,188.5,373.0,180.5,373.5,172.5,373.5,165.0,374.0,157.0,375.0,149.0,375.5,141.5,376.0,133.5,375.5,126.0,376.0" stroke="black" stroke-width="2" fill="none" />
<polyline points="111.0,366.0,102.0,374.0,104.5,366.0,108.0,368.0" stroke="black" stroke-width="2" fill="none" />
<polyline points="104.0,365.5,100.0,373.5,97.5,382.0,107.0,382.5,115.0,376.0" stroke="black" stroke-width="2" fill="none" />
<polyline points="97.5,369.5,90.0,370.5" stroke="black" stroke-width="2" fill="none" />
<polyline points="66.0,349.5,73.5,349.5,81.5,348.5,89.5,348.5,98.0,348.0,106.5,347.5,115.0,347.5,123.5,347.0,131.5,346.5,140.0,346.5,148.5,346.0,156.5,345.5,165.0,345.0,173.0,344.5,180.5,343.5,188.0,343.0,195.5,342.0,202.5,341.0,210.5,340.0,218.5,339.5,226.5,338.5,234.5,338.0,242.5,337.5,250.5,337.0,259.0,336.5,267.5,336.0,275.5,336.5,283.0,336.5,291.0,337.0,299.0,337.5,307.0,337.0,315.0,336.5,323.5,335.5,331.5,335.0,339.5,334.0,347.0,333.5,355.0,333.0,363.0,332.0,371.5,331.5,380.0,331.0,388.0,330.0,396.0,329.5,403.5,329.0,411.0,328.5,418.5,328.5,426.5,328.0,434.5,327.5,442.0,327.0,449.5,326.5,457.0,326.0,464.5,325.5,473.0,325.5,480.5,325.0,489.0,324.5,498.0,324.0,506.5,324.0,514.5,324.0" stroke="black" stroke-width="2" fill="none" />
<polyline points="515.5,305.5,507.5,306.0,499.5,306.5,491.5,307.0,483.5,307.5,475.0,308.0,467.0,308.5,459.0,309.0,451.0,309.5,443.0,310.5,435.0,311.0,427.0,311.5,419.0,312.0,411.0,312.5,403.5,313.0,395.0,313.5,387.0,314.0,379.5,314.5,372.0,315.0,364.0,315.0,356.0,315.5,348.5,315.5,341.0,315.5,333.0,316.0,325.0,317.0,317.0,317.5,309.0,318.0,300.5,318.5,292.5,319.0,284.5,319.5,276.0,319.5,268.0,320.0,260.0,321.0,251.5,321.5,243.5,322.5,235.5,323.0,227.0,323.5,219.5,324.0,211.0,324.0,203.0,324.5,195.0,325.5,187.0,325.5,179.0,326.0,170.5,326.5,162.5,327.5,155.0,329.0,147.0,329.0,139.0,329.0,131.0,329.5,123.0,330.5,114.5,331.0,106.5,331.0,99.0,331.5,91.0,332.0,83.0,333.0,75.0,333.5" stroke="black" stroke-width="2" fill="none" />
<polyline points="67.5,343.5,73.5,335.0,68.5,343.0,66.5,351.0,72.5,358.5,74.5,366.5,74.0,374.5,73.0,383.0" stroke="black" stroke-width="2" fill="none" />
<polyline points="65.0,376.5,62.0,381.5,66.5,373.0,74.0,359.5,66.0,349.0" stroke="black" stroke-width="2" fill="none" />
<polyline points="50.5,326.5,58.5,326.0,67.0,324.5,75.5,323.5,84.0,323.0,92.5,322.0,100.5,322.0,109.0,322.0,117.5,321.5,125.5,321.5,133.0,320.5,141.0,320.5,149.0,320.0,156.5,319.5,164.0,318.5,172.0,318.0,180.0,317.5,188.0,317.0,196.0,316.0,204.0,315.0,212.5,314.5,220.0,314.0,228.0,313.0,235.5,312.5,243.5,312.0,251.5,312.0,259.5,312.0,267.0,311.5,275.0,311.5,283.0,311.5,291.0,311.5,299.5,310.5,307.5,310.0,316.0,309.5,324.5,308.5,332.5,307.5,340.0,307.0,347.5,306.5,355.5,306.0,364.0,305.0,372.0,304.5,379.5,304.0,387.5,303.5,395.5,303.0,403.5,302.0,411.0,301.0,419.0,300.0,426.5,300.0,434.5,299.5,443.0,299.0,451.0,298.5,459.0,298.5,467.5,298.5,475.5,298.5,483.5,298.5,491.5,298.5,499.5,297.5,507.0,297.0,515.0,296.5" stroke="black" stroke-width="2" fill="none" />
<polyline points="517.5,288.5,509.0,289.0,500.5,289.0,492.0,289.0,483.5,289.5,474.5,290.0,466.0,290.5,457.5,291.0,449.5,291.5,442.0,292.0,434.5,292.5,427.0,293.0,420.0,294.0,412.0,294.0,404.0,294.5,396.5,294.5,388.5,294.5,380.0,294.5,372.0,295.0,364.5,295.5,356.5,296.0,348.5,297.0,341.0,298.0,333.0,298.5,325.0,299.5,316.5,301.0,308.5,302.0,300.0,303.0,291.5,304.0,284.0,304.5,276.0,305.0,268.0,306.0,260.5,306.0,252.5,306.0,244.5,306.5,237.0,307.0,228.5,307.0,220.0,306.5,211.5,306.5,204.0,307.5,196.5,308.5,189.0,310.0,181.5,310.5,173.5,311.0,166.0,311.0,158.0,311.0,150.0,311.5,142.0,312.0,134.0,312.5,125.5,313.0,117.0,313.5,108.5,315.0,99.5,315.5,91.0,316.5,82.5,316.5,74.0,317.0,65.5,317.0,57.5,318.0,49.0,318.5" stroke="black" stroke-width="2" fill="none" />
<polyline points="52.0,313.5,50.0,321.5,56.5,330.5,64.5,332.5,73.0,333.5,80.5,333.5,88.5,334.5" stroke="black" stroke-width="2" fill="none" />
<polyline points="51.0,312.0,58.5,311.0,66.5,309.5,74.5,308.5,83.0,307.5,91.5,307.0,100.0,306.0,108.5,305.5,117.0,305.5,124.5,305.5,132.5,305.5,140.5,304.5,149.5,303.5,157.5,302.5,165.5,301.5,173.0,301.5,181.0,301.0,188.0,301.0,195.5,300.5,203.0,300.0,211.0,299.5,219.0,299.5,227.0,299.0,235.5,299.0,244.0,299.0" stroke="black" stroke-width="2" fill="none" />
<polyline points="220.5,292.0,212.5,292.0,204.5,292.5,196.5,293.0,188.0,293.5,179.5,294.0,171.0,294.5,163.0,294.0,155.0,294.5,146.0,294.5,138.0,295.0,130.0,296.0,122.5,297.0,114.5,297.0,107.0,297.5,99.5,298.0,92.0,299.0,84.5,300.0,76.5,300.5,68.5,300.5,60.5,301.0,52.5,302.0,45.0,302.0" stroke="black" stroke-width="2" fill="none" />
<polyline points="43.0,292.5,51.0,291.5,59.5,292.0,67.5,291.5,75.5,291.0,83.0,290.5,91.0,289.5,98.5,289.0,106.5,288.0,115.5,287.5,123.5,287.0,131.0,286.5,139.0,286.0,147.0,285.5,155.0,285.5,163.5,285.5,171.5,285.5,179.5,285.0,187.5,285.0,195.5,285.0,203.5,284.5" stroke="black" stroke-width="2" fill="none" />
<polyline points="147.5,222.0,139.5,223.0,131.5,223.5,123.5,224.0,115.5,224.0,108.0,224.5,99.5,225.0,91.0,225.5,83.0,226.5,74.5,228.0,67.0,228.0,59.0,228.5,51.5,228.0,43.5,228.0,35.5,228.0,27.0,228.5" stroke="black" stroke-width="2" fill="none" />
<polyline points="26.0,228.5,33.5,221.5,41.5,213.5" stroke="black" stroke-width="2" fill="none" />
<polyline points="35.5,211.0,27.5,218.5" stroke="black" stroke-width="2" fill="none" />
<polyline points="27.5,221.0,36.0,221.5,44.0,221.5,52.5,221.5,60.5,221.5,68.5,221.0,76.5,220.0,84.0,219.0,91.5,218.0,99.5,217.5,107.5,217.0,115.5,216.0,123.5,215.5,131.5,215.5,139.0,216.0" stroke="black" stroke-width="2" fill="none" />
<polyline points="141.0,207.0,133.0,207.5,125.5,208.0,117.5,208.5,109.0,209.5,101.0,210.0,93.5,211.0,85.5,211.5,76.5,211.5,67.5,212.0,59.0,212.5,50.5,213.0,43.0,213.5,35.0,214.0,27.0,214.5,19.0,215.0" stroke="black" stroke-width="2" fill="none" />
<polyline points="19.5,211.0,27.5,203.0" stroke="black" stroke-width="2" fill="none" />
<polyline points="28.5,200.0,36.5,199.0,31.0,202.0,36.0,202.0,32.0,206.0,34.0,201.0,40.5,204.0" stroke="black" stroke-width="2" fill="none" />
<polyline points="52.0,201.5,60.5,194.0,68.5,187.0,76.5,179.5,84.0,172.0" stroke="black" stroke-width="2" fill="none" />
<polyline points="81.5,165.0,89.5,165.0,97.0,165.0,105.0,164.5" stroke="black" stroke-width="2" fill="none" />
<polyline points="105.5,170.0,98.0,171.0,90.5,171.5,82.5,172.5,74.0,173.5,66.0,174.5" stroke="black" stroke-width="2" fill="none" />
<polyline points="70.0,181.0,61.5,188.5,53.0,195.5" stroke="black" stroke-width="2" fill="none" />
<polyline points="43.5,195.5,51.0,188.0,59.0,180.5" stroke="black" stroke-width="2" fill="none" />
<polyline points="45.0,179.0,53.0,178.5,60.5,179.0,68.5,178.5,77.0,178.0,85.0,177.5,93.5,177.0,101.5,176.5,110.0,176.0,117.5,175.5" stroke="black" stroke-width="2" fill="none" />
<polyline points="113.0,192.0,105.5,192.0,97.5,192.0,89.5,193.0,81.5,194.0,74.0,195.0,67.0,196.0,60.0,196.5,52.0,197.0,44.5,197.0,36.5,197.5,28.5,198.0,20.5,198.0" stroke="black" stroke-width="2" fill="none" />
<polyline points="17.0,202.0,25.5,194.0" stroke="black" stroke-width="2" fill="none" />
<polyline points="30.0,197.0,27.0,205.0,31.0,209.5,44.0,203.0" stroke="black" stroke-width="2" fill="none" />
<polyline points="34.5,195.5,42.5,187.5" stroke="black" stroke-width="2" fill="none" />
<polyline points="20.5,191.5,28.0,191.0,36.0,190.5,44.0,190.0,52.0,190.0,60.0,189.0,67.5,188.5,75.5,187.5,83.5,187.0,92.0,186.5,100.0,186.0,108.0,185.5,115.5,184.5" stroke="black" stroke-width="2" fill="none" />
<polyline points="129.0,193.5,134.0,201.5,145.0,209.5,154.0,218.0,160.5,226.5,166.5,235.0,177.5,246.0,182.5,253.5,188.0,261.0,194.0,269.0,198.5,278.0,205.0,286.0" stroke="black" stroke-width="2" fill="none" />
<polyline points="139.0,200.5,131.0,200.0,123.0,200.0,115.0,200.0,107.0,200.5,99.0,201.0,91.0,201.0,83.0,202.5,76.0,203.0,68.5,203.5,60.5,204.0,52.5,204.5,44.0,205.5,36.0,206.5,27.0,207.5,19.0,208.0" stroke="black" stroke-width="2" fill="none" />
<polyline points="13.5,202.0,21.5,221.0,30.0,237.0,38.0,253.0,46.5,250.5,55.0,248.5,63.0,247.5,71.0,248.0,79.0,248.0,87.5,248.5,95.0,249.0,103.0,249.5,111.0,250.5,119.0,250.5,126.5,251.0,134.5,251.0" stroke="black" stroke-width="2" fill="none" />
<polyline points="84.5,274.5,76.0,274.5,68.0,274.5,60.5,275.0,52.5,275.0,44.0,280.5,36.0,290.5" stroke="black" stroke-width="2" fill="none" />
<polyline points="42.5,274.5,40.0,282.5,37.0,290.5,36.0,299.0,49.0,306.5,47.0,315.0,46.5,322.5,57.5,330.5" stroke="black" stroke-width="2" fill="none" />
<polyline points="4.5,368.0,12.0,367.0,19.0,366.0,26.5,365.0,34.5,364.0,42.0,362.5,50.0,362.0,57.5,362.0,65.0,361.5,73.5,361.0,81.0,360.0,89.5,359.5,98.0,359.0,106.5,358.0,115.0,357.5,123.5,356.5,131.5,356.0,140.0,356.5,148.5,356.5,156.5,355.5,164.5,355.0,173.0,354.5,181.0,354.5,189.5,354.5,197.5,354.5,206.0,354.0,213.5,353.5,221.0,352.5,229.0,352.0,237.0,351.5,245.0,351.0,252.5,350.5,260.0,349.5,268.0,349.0,276.0,348.5,284.0,348.5,292.5,348.0,300.5,347.5,309.0,347.5,317.5,346.5,325.5,346.5,333.5,345.5,341.5,345.0,349.5,345.0,357.0,344.5,364.5,344.5,372.0,344.5,379.0,344.0,386.5,343.5,394.5,343.0,402.5,342.5,410.5,342.0,418.5,341.5,426.5,340.0,435.0,339.0,443.0,338.0,451.0,337.0,459.5,336.5,467.5,336.0,475.5,335.5,483.5,335.0,491.5,334.5,499.5,333.0,507.5,332.0,515.5,331.5" stroke="black" stroke-width="2" fill="none" />
<polyline points="516.0,350.0,507.5,349.5,499.5,350.0,491.5,350.5,483.5,351.5,475.5,351.5,467.5,352.0,460.0,352.5,452.5,353.5,445.0,354.0,436.5,354.0,427.5,354.5,419.0,355.0,410.5,355.0,403.0,356.0,395.0,356.0,387.0,356.5,379.0,356.5,371.0,356.5,363.0,357.0,355.0,357.5,347.0,357.5,339.5,358.0,332.0,358.5,324.0,359.0,316.0,360.0,308.0,360.5,299.5,361.5,291.0,362.0,283.0,362.5,274.5,363.0,265.5,364.0,257.0,364.5,249.0,364.5,241.5,365.5,233.5,365.5,226.0,366.0,218.0,367.0,209.5,368.0,202.0,369.5,194.0,370.0,186.5,370.5,179.0,371.0,171.0,372.0,163.5,372.5,155.5,372.5,147.5,373.0,140.0,373.5,132.5,374.0,124.5,374.5,117.0,375.0,108.5,375.5,100.5,376.5,92.5,377.0,84.5,378.0,77.0,378.5,69.0,379.5,60.5,379.5,51.5,379.5,43.0,380.5,35.0,380.5,27.0,381.0,19.0,381.5,10.5,381.5,2.0,382.0" stroke="black" stroke-width="2" fill="none" />
<polyline points="3.0,374.5,11.0,373.5,19.0,373.5,27.0,373.0,35.5,372.5,43.5,372.0,51.0,371.5,59.0,371.0,67.0,370.0,75.0,369.5,83.0,368.5,91.0,368.0,99.0,367.0,107.0,366.5,114.5,366.0,122.5,366.0,131.0,365.5,139.0,364.5,147.0,364.0,155.0,364.0,163.0,364.0,170.5,362.5,178.5,361.5,187.0,361.0,195.0,360.5,203.0,360.5,211.0,359.5,219.0,359.0,227.5,359.0,235.0,358.5,243.5,358.0,251.5,357.5,259.5,356.5,268.0,356.0,276.0,355.0,284.0,354.5,292.5,354.5,300.5,354.0,308.5,353.5,317.0,353.0,325.0,352.5,333.0,352.0,341.0,351.0,349.0,350.5,356.5,350.5,364.0,350.5,372.0,350.0,380.0,350.0,387.5,349.5,395.0,349.0,403.0,348.5,411.5,348.0,419.0,347.5,427.0,347.0,435.0,346.5,443.0,346.0,451.0,345.5,459.0,344.5,467.0,344.0,475.0,343.5,483.0,343.0,491.5,342.5,499.5,342.0,507.5,341.5,515.5,341.0" stroke="black" stroke-width="2" fill="none" />
<polyline points="254.0,278.0,246.5,278.0,238.5,277.0,230.5,276.0,222.5,277.0,214.5,275.0,206.5,272.5,199.0,270.5,191.0,262.5,182.5,250.0,176.0,241.5,165.5,229.5,157.5,221.0,150.0,212.5,142.0,208.5,134.5,198.5,126.5,193.5,118.5,200.0,110.5,181.0,102.5,165.0,94.5,162.0,86.5,165.0,78.0,168.0,69.5,171.5,61.0,175.0,53.0,178.0,44.5,181.0,36.0,182.5,28.0,185.5,20.0,187.5,11.5,194.5" stroke="black" stroke-width="2" fill="none" />
<polyline points="28.0,225.0,36.5,224.5" stroke="black" stroke-width="2" fill="none" />
<polyline points="95.5,276.0,87.5,278.0,80.0,278.0,71.5,278.0,64.0,278.0,55.5,278.0,46.5,275.5,38.0,278.0,29.5,277.5,25.0,274.0,29.0,267.5,37.0,259.0,35.0,250.0,32.0,242.5,28.0,234.5,24.0,226.5,20.5,218.5,17.5,211.0,15.0,203.5,14.0,195.5,25.5,187.0,48.5,179.0,71.5,170.5,91.0,162.0" stroke="black" stroke-width="2" fill="none" />
</svg>